# xmcd
#
# Track frame offsets:
#	151
#	11512
#	24420
#	39314
#	53579
#	63711
#	79540
#	94456
#	109996
#	118855
#	136535
#	148225
#	161366
#	172572
#	188340
#	200604
#
# Disc length: 2872 seconds
#
# Revision: 1
# Processed by: cddbd v1.5.2PL0 Copyright (c) Steve Scherf et al.
# Submitted via: audiograbber 1.83.01
#
DISCID=c80b3610
DTITLE=Hermann Lammers Meyer - The Waltz Of The Wind
DYEAR=1999
DGENRE=Country
TTITLE0=When Two Worlds Collide
TTITLE1=I Won't Go Huntin' With You Jake
TTITLE2=The Heart Of A Man
TTITLE3=(Take Some) Time Off
TTITLE4=My Ears Should Burn, When Fools Are Talked About
TTITLE5=I'll Be Home Soon
TTITLE6=The Waltz Of The Wind
TTITLE7=Handle With Care
TTITLE8=The Way I Feel
TTITLE9=Death Of A Clown
TTITLE10=Mr. Heartache
TTITLE11=I Just Don't Understand
TTITLE12=Moonshine Ladies
TTITLE13=A Song For Sarah
TTITLE14=Without You
TTITLE15=Death Of A Clown (single version)
EXTD=
EXTT0=
EXTT1=
EXTT2=
EXTT3=
EXTT4=
EXTT5=
EXTT6=
EXTT7=
EXTT8=
EXTT9=
EXTT10=
EXTT11=
EXTT12=
EXTT13=
EXTT14=
EXTT15=
PLAYORDER=
